HIERARCHY
ROOT Hips
{
	OFFSET 0.000000 0.000000 0.000000
	CHANNELS 6 Xposition Yposition Zposition Zrotation Yrotation Xrotation 
	JOINT LHipJoint
	{
		OFFSET 0.000000 0.000000 0.000000
		CHANNELS 3 Zrotation Yrotation Xrotation
		JOINT LeftUpLeg
		{
			OFFSET 1.363060 -1.794630 0.839290
			CHANNELS 3 Zrotation Yrotation Xrotation
			JOINT LeftLeg
			{
				OFFSET 2.448110 -6.726130 0.000000
				CHANNELS 3 Zrotation Yrotation Xrotation
				JOINT LeftFoot
				{
					OFFSET 2.562200 -7.039590 0.000000
					CHANNELS 3 Zrotation Yrotation Xrotation
					JOINT LeftToeBase
					{
						OFFSET 0.157640 -0.433110 2.322550
						CHANNELS 3 Zrotation Yrotation Xrotation
						End Site
						{
							OFFSET 0.000000 0.000000 0.000000
						}
					}
				}
			}
		}
	}
	JOINT RHipJoint
	{
		OFFSET 0.000000 0.000000 0.000000
		CHANNELS 3 Zrotation Yrotation Xrotation
		JOINT RightUpLeg
		{
			OFFSET -1.305520 -1.794630 0.839290
			CHANNELS 3 Zrotation Yrotation Xrotation
			JOINT RightLeg
			{
				OFFSET -2.542530 -6.985550 0.000000
				CHANNELS 3 Zrotation Yrotation Xrotation
				JOINT RightFoot
				{
					OFFSET -2.568260 -7.056230 0.000000
					CHANNELS 3 Zrotation Yrotation Xrotation
					JOINT RightToeBase
					{
						OFFSET -0.164730 -0.452590 2.363150
						CHANNELS 3 Zrotation Yrotation Xrotation
						End Site
						{
							OFFSET 0.000000 0.000000 0.000000
						}
					}
				}
			}
		}
	}
	JOINT LowerBack
	{
		OFFSET 0.000000 0.000000 0.000000
		CHANNELS 3 Zrotation Yrotation Xrotation
		JOINT Spine
		{
			OFFSET 0.028270 2.035590 -0.193380
			CHANNELS 3 Zrotation Yrotation Xrotation
			JOINT Spine1
			{
				OFFSET 0.056720 2.048850 -0.042750
				CHANNELS 3 Zrotation Yrotation Xrotation
				JOINT Neck
				{
					OFFSET 0.000000 0.000000 0.000000
					CHANNELS 3 Zrotation Yrotation Xrotation
					JOINT Neck1
					{
						OFFSET -0.054170 1.746240 0.172020
						CHANNELS 3 Zrotation Yrotation Xrotation
						JOINT Head
						{
							OFFSET 0.104070 1.761360 -0.123970
							CHANNELS 3 Zrotation Yrotation Xrotation
							End Site
							{
								OFFSET 0.000000 0.000000 0.000000
							}
						}
					}
				}
				JOINT LeftShoulder
				{
					OFFSET 0.000000 0.000000 0.000000
					CHANNELS 3 Zrotation Yrotation Xrotation
					JOINT LeftArm
					{
						OFFSET 3.362410 1.200890 -0.311210
						CHANNELS 3 Zrotation Yrotation Xrotation
						JOINT LeftForeArm
						{
							OFFSET 4.983000 -0.000000 -0.000000
							CHANNELS 3 Zrotation Yrotation Xrotation
							JOINT LeftHand
							{
								OFFSET 3.483560 -0.000000 -0.000000
								CHANNELS 3 Zrotation Yrotation Xrotation
								JOINT LeftFingerBase
								{
									OFFSET 0.000000 0.000000 0.000000
									CHANNELS 3 Zrotation Yrotation Xrotation
									JOINT LeftHandIndex1
									{
										OFFSET 0.715260 -0.000000 -0.000000
										CHANNELS 3 Zrotation Yrotation Xrotation
										End Site
										{
											OFFSET 0.000000 0.000000 0.000000
										}
									}
								}
								JOINT LThumb
								{
									OFFSET 0.000000 0.000000 0.000000
									CHANNELS 3 Zrotation Yrotation Xrotation
									End Site
									{
										OFFSET 0.000000 0.000000 0.000000
									}
								}
							}
						}
					}
				}
				JOINT RightShoulder
				{
					OFFSET 0.000000 0.000000 0.000000
					CHANNELS 3 Zrotation Yrotation Xrotation
					JOINT RightArm
					{
						OFFSET -3.136600 1.374050 -0.404650
						CHANNELS 3 Zrotation Yrotation Xrotation
						JOINT RightForeArm
						{
							OFFSET -5.241900 -0.000000 -0.000000
							CHANNELS 3 Zrotation Yrotation Xrotation
							JOINT RightHand
							{
								OFFSET -3.444170 -0.000000 -0.000000
								CHANNELS 3 Zrotation Yrotation Xrotation
								JOINT RightFingerBase
								{
									OFFSET 0.000000 0.000000 0.000000
									CHANNELS 3 Zrotation Yrotation Xrotation
									JOINT RightHandIndex1
									{
										OFFSET -0.622530 -0.000000 -0.000000
										CHANNELS 3 Zrotation Yrotation Xrotation
										End Site
										{
											OFFSET 0.000000 0.000000 0.000000
										}
									}
								}
								JOINT RThumb
								{
									OFFSET 0.000000 0.000000 0.000000
									CHANNELS 3 Zrotation Yrotation Xrotation
									End Site
									{
										OFFSET 0.000000 0.000000 0.000000
									}
								}
							}
						}
					}
				}
			}
		}
	}
}
MOTION
Frames: 12
Frame Time: 0.008333
0.039464 17.750955 0.024474 -2.932496 7.385650 4.781878 1.116541 5.192819 2.492519 -14.438552 -22.612772 -1.579971 -0.428105 4.531522 16.573579 -0.296346 2.760679 -6.693199 0.609900 -4.998400 -13.903900 -3.890216 -5.702195 0.831736 26.161250 5.009535 7.108690 0.771875 1.349174 2.399375 1.408171 -10.446008 -8.324027 -0.142000 2.428300 -6.690900 2.735253 2.923454 -6.528602 -3.797305 2.876318 -4.501806 3.229199 1.638219 -0.535007 -17.567514 -15.721191 -5.906102 7.090745 -22.971535 25.813167 4.383700 -11.639900 18.344900 -5.476312 -11.936129 4.499738 32.064258 -36.754746 -59.468049 155.227445 -37.904338 -110.876348 -0.882055 4.651641 -33.857844 20.532601 44.810805 12.441800 -7.125000 0.000000 0.000000 -26.699400 70.699800 -16.755500 7.725604 11.497171 3.916507 52.051588 55.804915 29.775850 -143.390571 35.538704 -105.591320 -1.789305 5.095315 0.111592 -25.887613 25.151488 -8.671000 7.125000 0.000000 0.000000 2.642400 -8.465400 2.227000 
0.039871 17.752689 0.020904 -2.974474 7.285414 4.841160 1.115232 5.189205 2.480807 -14.383865 -22.645734 -1.634360 -0.430825 4.537530 16.578201 -0.295358 2.787471 -6.796885 0.541100 -4.713100 -13.092100 -3.891950 -5.694889 0.824940 26.208410 5.133221 7.064663 0.772225 1.348008 2.397386 1.410164 -10.456281 -8.307629 -0.142100 2.429700 -6.694900 2.816058 2.952830 -6.437245 -3.808525 2.915583 -4.649437 3.192165 1.655205 -0.582661 -17.447112 -15.688706 -5.744666 7.041542 -22.846799 25.357559 4.373300 -11.597800 17.945300 -5.492584 -11.966936 4.502647 31.823653 -36.837054 -59.435379 155.491003 -37.605459 -111.057354 -0.918254 4.661899 -34.339207 20.583007 44.660978 12.428600 -7.125000 0.000000 0.000000 -26.378500 70.574500 -16.473200 7.747864 11.506626 3.952328 52.157212 55.644484 29.983449 -143.481997 35.520113 -105.630126 -1.813406 5.102939 0.128040 -26.106977 25.248436 -8.785300 7.125000 0.000000 0.000000 2.525600 -8.339700 2.134700 
0.041401 17.752995 0.016622 -2.981444 7.160264 4.868780 1.124465 5.192970 2.481608 -14.387520 -22.632823 -1.631570 -0.439239 4.521236 16.532391 -0.302768 2.834052 -6.838250 0.510500 -4.579900 -12.714200 -3.882371 -5.689364 0.829973 26.198872 5.275805 7.040366 0.770783 1.345929 2.394561 1.411102 -10.444977 -8.242624 -0.158600 2.565700 -7.071700 2.738462 2.913366 -6.394204 -3.625929 2.888890 -4.636469 3.262431 1.635941 -0.613679 -17.448061 -15.616411 -5.744666 7.023145 -22.647304 24.913387 4.397100 -11.530500 17.602800 -5.521057 -12.003048 4.459424 31.418402 -36.687892 -59.440611 155.754917 -37.260419 -111.250890 -0.964796 4.675232 -35.054838 20.735657 44.490160 12.473200 -7.125000 0.000000 0.000000 -25.924300 70.463100 -16.114300 7.751312 11.501360 4.005992 52.240396 55.701481 30.329149 -143.496592 35.476024 -105.657802 -1.846430 5.091108 -0.055106 -26.204515 25.045885 -8.734300 7.125000 0.000000 0.000000 2.454100 -8.539500 2.064400 
0.043237 17.752485 0.014072 -2.997750 7.060287 4.874208 1.140419 5.200846 2.494265 -14.395993 -22.612509 -1.630689 -0.445483 4.507796 16.502496 -0.324072 2.937260 -6.852105 0.511300 -4.583500 -12.724400 -3.864755 -5.688635 0.851516 26.187855 5.393119 7.024426 0.770962 1.345114 2.392843 1.412593 -10.454390 -8.243720 -0.158800 2.567700 -7.077400 2.610947 2.834401 -6.430658 -3.322144 2.819453 -4.400834 3.377030 1.594245 -0.600274 -17.508432 -15.571041 -6.023967 6.977183 -22.465948 24.486406 4.389600 -11.462400 17.336600 -5.547214 -12.049602 4.400366 31.031136 -36.363952 -59.548191 156.016437 -36.909638 -111.439321 -0.981576 4.681268 -35.482821 20.762444 44.192439 12.402500 -7.125000 0.000000 0.000000 -25.436000 70.210000 -15.657300 7.732828 11.488842 4.044441 52.223064 55.941537 30.690320 -143.441596 35.416668 -105.657794 -1.842386 5.106616 -0.274345 -26.121761 25.133520 -8.737300 7.125000 0.000000 0.000000 2.496900 -8.483200 2.103300 
0.045480 17.752587 0.011523 -2.941431 6.975025 4.884232 1.131052 5.202044 2.495019 -14.469026 -22.613648 -1.614768 -0.449366 4.503159 16.492437 -0.354180 3.077394 -6.839986 0.575400 -4.857500 -13.502400 -3.873052 -5.686457 0.853167 26.124524 5.480206 7.022725 0.770291 1.343589 2.391272 1.412106 -10.447789 -8.226898 -0.160500 2.581300 -7.115200 2.638877 2.845180 -6.352874 -3.443748 2.826292 -4.377585 3.375626 1.597864 -0.641683 -17.325253 -15.576900 -5.968389 7.003431 -22.409879 23.961671 4.393100 -11.431300 16.964800 -5.544258 -12.076519 4.391285 30.868654 -36.317828 -59.585987 156.316663 -36.567369 -111.635511 -1.008146 4.715183 -35.712147 20.820015 44.175930 12.419000 -7.125000 0.000000 0.000000 -25.307000 70.181200 -15.558600 7.748480 11.495943 4.088850 52.323664 55.960406 30.839673 -143.488293 35.382128 -105.682673 -1.846875 5.124332 -0.296408 -26.198076 25.303981 -8.830200 7.125000 0.000000 0.000000 2.462900 -8.310500 2.083100 
0.047315 17.753810 0.008770 -2.925294 6.916786 4.945449 1.115858 5.197180 2.480696 -14.466154 -22.626908 -1.639302 -0.452438 4.504013 16.481500 -0.353848 3.087602 -6.868327 0.549700 -4.749800 -13.196300 -3.891223 -5.678796 0.832169 26.126505 5.547139 6.987881 0.771241 1.342019 2.388166 1.430614 -10.542029 -8.153942 -0.168000 2.640900 -7.280500 2.784425 2.904857 -6.242874 -3.707083 2.880889 -4.636344 3.291425 1.624900 -0.703512 -17.183897 -15.602277 -5.464998 7.158694 -22.410540 23.361572 4.483000 -11.441700 16.526400 -5.542918 -12.085460 4.408592 30.705886 -36.494431 -59.454923 156.613011 -36.248228 -111.819963 -1.029074 4.746440 -35.883250 20.864331 44.132067 12.421000 -7.125000 0.000000 0.000000 -25.153400 70.127200 -15.430400 7.791626 11.529814 4.135489 52.503097 55.712851 30.882296 -143.617291 35.379249 -105.734142 -1.876556 5.118498 -0.265845 -26.401196 25.303758 -8.901600 7.125000 0.000000 0.000000 2.354300 -8.274900 1.992700 
0.049967 17.756564 0.006628 -3.018498 6.851197 4.986628 1.117135 5.196518 2.480072 -14.352714 -22.614360 -1.704915 -0.452425 4.511484 16.487988 -0.338949 3.034477 -6.923296 0.489400 -4.485400 -12.446500 -3.894364 -5.673199 0.829096 26.222223 5.630716 6.955538 0.772139 1.343106 2.386896 1.437200 -10.573702 -8.122687 -0.164400 2.612300 -7.201200 2.934620 2.923793 -6.256880 -3.713802 2.900764 -4.679909 3.232767 1.627559 -0.692907 -17.171219 -15.617414 -5.190070 7.287396 -22.370986 22.811524 4.563500 -11.437800 16.170400 -5.552299 -12.110717 4.396661 30.482043 -36.483436 -59.340409 156.956095 -35.862781 -112.027685 -1.025980 4.806176 -35.877430 21.055349 44.123817 12.514800 -7.125000 0.000000 0.000000 -24.898600 70.138500 -15.273700 7.809680 11.564095 4.170721 52.567287 55.648077 31.036178 -143.692380 35.333838 -105.787734 -1.891841 5.111213 -0.230956 -26.474742 25.150628 -8.862100 7.125000 0.000000 0.000000 2.304600 -8.421400 1.943900 
0.052822 17.758195 0.002753 -3.022020 6.753595 5.065077 1.119113 5.195651 2.477594 -14.346602 -22.626977 -1.788593 -0.453223 4.514988 16.496903 -0.355931 3.120609 -6.941024 0.489200 -4.484800 -12.444800 -3.891065 -5.668509 0.837952 26.209454 5.766864 6.876348 0.772001 1.341374 2.384231 1.439465 -10.584151 -8.103854 -0.163700 2.606700 -7.185500 2.938540 2.914091 -6.297322 -3.643770 2.894952 -4.615118 3.258154 1.618947 -0.671671 -17.194867 -15.632194 -5.142656 7.364149 -22.318900 22.331360 4.610600 -11.423700 15.892500 -5.565386 -12.140044 4.368231 30.220843 -36.387284 -59.289954 157.240340 -35.514431 -112.208065 -1.036765 4.849957 -35.777754 20.980230 44.199580 12.464700 -7.125000 0.000000 0.000000 -25.050200 70.138200 -15.370400 7.813820 11.577774 4.212630 52.618506 55.721246 31.261151 -143.685962 35.309318 -105.790106 -1.885696 5.131489 -0.096919 -26.553518 25.268695 -8.934400 7.125000 0.000000 0.000000 2.266600 -8.302200 1.917100 
0.055779 17.757685 0.000612 -3.027260 6.705930 5.086668 1.119315 5.198873 2.484435 -14.351157 -22.640600 -1.816874 -0.451743 4.518224 16.509190 -0.367538 3.168897 -6.920013 0.512000 -4.586400 -12.732500 -3.890541 -5.668233 0.849640 26.200382 5.830335 6.846665 0.772190 1.341415 2.383080 1.442356 -10.598916 -8.094451 -0.162600 2.598000 -7.161500 2.984517 2.902451 -6.307312 -3.615983 2.881918 -4.461385 3.256603 1.608030 -0.663466 -17.179613 -15.660498 -5.258493 7.407534 -22.296194 21.960490 4.622200 -11.410000 15.701300 -5.573077 -12.176745 4.345438 29.992431 -36.318447 -59.234120 157.515089 -35.173821 -112.382903 -1.043811 4.873832 -35.549893 20.678262 44.185216 12.251300 -7.125000 0.000000 0.000000 -25.315200 69.997000 -15.461700 7.814474 11.589213 4.241427 52.619282 55.860901 31.466622 -143.657957 35.281389 -105.780157 -1.874134 5.160269 0.059727 -26.639272 25.450496 -9.034700 7.125000 0.000000 0.000000 2.227200 -8.122300 1.891600 
0.058023 17.757074 -0.000000 -2.984536 6.654814 5.097743 1.115767 5.200567 2.482927 -14.418432 -22.639508 -1.798552 -0.456522 4.513154 16.497292 -0.381060 3.251594 -6.989391 0.523300 -4.636200 -12.873700 -3.890019 -5.664259 0.848130 26.136548 5.878342 6.850381 0.771318 1.339846 2.382420 1.438349 -10.575886 -8.095765 -0.155600 2.541800 -7.005700 2.974141 2.908114 -6.253719 -3.629764 2.893625 -4.484406 3.269673 1.611283 -0.701266 -17.216894 -15.690936 -5.102897 7.487053 -22.291810 21.577630 4.671900 -11.420100 15.481100 -5.590075 -12.203538 4.328420 29.707165 -36.368562 -59.043335 157.741190 -34.905077 -112.510342 -1.009957 4.920609 -35.177905 20.698960 44.173513 12.238600 -7.125000 0.000000 0.000000 -25.263700 69.963500 -15.410300 7.831098 11.610672 4.267795 52.658817 55.804985 31.641567 -143.709708 35.252955 -105.810503 -1.884916 5.166332 0.154152 -26.774871 25.451876 -9.080900 7.125000 0.000000 0.000000 2.151900 -8.106000 1.828300 
0.058736 17.758705 -0.000306 -2.978471 6.621345 5.155919 1.107453 5.195553 2.467269 -14.410203 -22.663649 -1.838022 -0.458031 4.514406 16.490567 -0.372268 3.220029 -7.016385 0.484500 -4.463300 -12.383900 -3.897905 -5.656685 0.831656 26.135915 5.922065 6.814806 0.771078 1.338460 2.381396 1.438570 -10.575884 -8.081407 -0.149500 2.491300 -6.865600 3.048145 2.933285 -6.158179 -3.765556 2.916557 -4.719377 3.228684 1.622062 -0.760877 -17.231104 -15.729937 -4.734724 7.573871 -22.328393 21.252376 4.731200 -11.455000 15.268900 -5.603230 -12.223152 4.326087 29.451773 -36.499506 -58.735531 157.976803 -34.634135 -112.642017 -0.992831 4.976028 -34.743064 20.638356 44.336267 12.217800 -7.125000 0.000000 0.000000 -25.532500 70.039600 -15.624100 7.871650 11.641230 4.306732 52.798458 55.548228 31.779667 -143.874414 35.208490 -105.897078 -1.912081 5.159944 0.297653 -26.990463 25.340984 -9.109100 7.125000 0.000000 0.000000 2.029400 -8.183400 1.721000 
0.058227 17.759521 -0.003875 -2.970416 6.592502 5.212886 1.104703 5.190560 2.460572 -14.387498 -22.633319 -1.910356 -0.456765 4.512504 16.480558 -0.358204 3.137828 -6.954799 0.454500 -4.324800 -11.992300 -3.901474 -5.652310 0.826607 26.132708 5.971776 6.759935 0.771042 1.337308 2.380263 1.438908 -10.578855 -8.076929 -0.169400 2.651800 -7.310700 3.067216 2.952956 -6.060783 -3.822309 2.941772 -4.800069 3.215596 1.635752 -0.823165 -17.198768 -15.780545 -4.702698 7.563927 -22.373882 21.048831 4.715000 -11.475600 15.156400 -5.618867 -12.251565 4.321160 29.242509 -36.585933 -58.367831 158.135548 -34.489308 -112.693046 -0.851915 5.042773 -33.974691 21.164852 44.045197 12.446900 -7.125000 0.000000 0.000000 -24.597800 69.950200 -14.980100 7.893899 11.658744 4.323381 52.829730 55.420455 31.905019 -144.002277 35.142566 -105.973189 -1.926411 5.163836 0.481086 -27.167116 25.262528 -9.134800 7.125000 0.000000 0.000000 1.927500 -8.242100 1.632200 
